# xmcd CD database file
#
# Track frame offsets:
#	150
#	23383
#	54923
#	84339
#	107633
#	143106
#	160055
#	167016
#	200201
#	228416
#
# Disc length: 3428 seconds
#
# Revision: 0
# Processed by: cddbd v1.5PL3 Copyright (c) Steve Scherf et al.
# Submitted via: CDex 1.51
#
DISCID=730d620a
DTITLE=Stephen - Hearts Over Captiva Island
DYEAR=2003
DGENRE=New Age
TTITLE0=Dawn Over Captiva
TTITLE1=Rising Sun Over Pine Island So
TTITLE2=Counting the Waves
TTITLE3=Dolphin's Dance
TTITLE4=Conscious Connection
TTITLE5=The Rain, Our Love as One
TTITLE6=A Romantic Coffee by the Fount
TTITLE7=The Lantern on the Shoreline
TTITLE8=Love on Distant Waves
TTITLE9=Stephen - Simply Mare
EXTD=YEAR: 2003
EXTT0=
EXTT1=
EXTT2=
EXTT3=
EXTT4=
EXTT5=
EXTT6=
EXTT7=
EXTT8=
EXTT9=
PLAYORDER=
